P3
# comment1
# comment2
# comment3
4 4
1023
0  0  0    0  0  0    0  0  0   1023  0 1023
0  0  0    0 1023  70    0  0  0    0  0  0
0  0  0    0  0  0    0 1023  70    0  0  0
1023  0 1023    0  0  0    0  0  0    0  0  0
